

<svg xmlns="http://www.w3.org/2000/svg" width="65" height="65" viewBox="0 0 65 65" fill="none">
<path d="M32.0938 0C25.7462 0 19.5412 1.88227 14.2634 5.40877C8.98564 8.93528 4.87211 13.9476 2.44301 19.812C0.0139057 25.6764 -0.621658 32.1294 0.616687 38.3549C1.85503 44.5805 4.91166 50.2991 9.40006 54.7875C13.8884 59.2759 19.607 62.3325 25.8326 63.5708C32.0582 64.8092 38.5111 64.1736 44.3755 61.7445C50.2399 59.3154 55.2522 55.2019 58.7787 49.9241C62.3052 44.6463 64.1875 38.4413 64.1875 32.0938C64.1785 23.5847 60.7943 15.4268 54.7775 9.40997C48.7607 3.39317 40.6028 0.00898569 32.0938 0ZM44.6072 34.1243L28.5604 45.2337C28.1899 45.4898 27.7564 45.6398 27.3069 45.6673C26.8573 45.6947 26.4088 45.5987 26.0099 45.3896C25.611 45.1804 25.2769 44.8661 25.0438 44.4807C24.8107 44.0953 24.6875 43.6535 24.6875 43.2031V20.9844C24.6875 20.534 24.8107 20.0922 25.0438 19.7068C25.2769 19.3214 25.611 19.0071 26.0099 18.7979C26.4088 18.5888 26.8573 18.4928 27.3069 18.5202C27.7564 18.5477 28.1899 18.6977 28.5604 18.9538L44.6072 30.0632C44.9357 30.2903 45.2041 30.5937 45.3896 30.9474C45.575 31.3011 45.6719 31.6944 45.6719 32.0938C45.6719 32.4931 45.575 32.8864 45.3896 33.2401C45.2041 33.5938 44.9357 33.8972 44.6072 34.1243Z" fill="currentColor"/>
</svg>